<svg width="262" height="127" viewBox="0 0 262 127" fill="none" xmlns="http://www.w3.org/2000/svg">
<path d="M68.2929 93.2929L7.60083 32.6008C6.43729 31.4373 6.42814 29.5537 7.58033 28.3789L28.8872 6.65425C30.0521 5.46651 31.961 5.4535 33.142 6.62525L93.2957 66.309C93.9268 66.9351 95 66.4881 95 65.5991V3C95 1.34315 96.3431 0 98 0H123C124.657 0 126 1.34315 126 3V114.198C126 120.825 120.627 126.198 114 126.198H3C1.34315 126.198 0 124.855 0 123.198V98C0 96.3431 1.34315 95 3 95H67.5858C68.4767 95 68.9229 93.9229 68.2929 93.2929Z" fill="#FDFFDD"/>
<path d="M228.194 57.8057L167.502 118.498C166.339 119.661 164.455 119.67 163.28 118.518L141.556 97.2115C140.368 96.0466 140.355 94.1376 141.527 92.9566L201.21 32.803C201.837 32.1719 201.389 31.0986 200.5 31.0986H137.901C136.245 31.0986 134.901 29.7555 134.901 28.0986V3.09863C134.901 1.44178 136.245 0.0986328 137.901 0.0986328H249.099C255.727 0.0986328 261.099 5.47121 261.099 12.0986V123.099C261.099 124.755 259.756 126.099 258.099 126.099L232.901 126.099C231.245 126.099 229.901 124.755 229.901 123.099V58.5128C229.901 57.6219 228.824 57.1758 228.194 57.8057Z" fill="#FDFFDD"/>
</svg>
