<svg width="76" height="76" viewBox="0 0 76 76" fill="none" xmlns="http://www.w3.org/2000/svg">
<path d="M33.614 75.5524C32.524 75.4324 31.724 74.4434 31.844 73.3524C31.964 72.2524 32.954 71.4624 34.054 71.5824C35.154 71.7024 35.944 72.6824 35.824 73.7824C35.714 74.8124 34.844 75.5724 33.834 75.5724C33.764 75.5724 33.694 75.5624 33.614 75.5524Z" fill="white"/>
<path d="M39.9041 73.7721C39.7841 72.6811 40.5741 71.6811 41.6641 71.5621C42.7651 71.4311 43.7541 72.2211 43.8841 73.3221C44.0041 74.4121 43.2141 75.4021 42.1241 75.5321C42.0441 75.5421 41.9641 75.5521 41.8951 75.5521C40.8941 75.5521 40.0241 74.7921 39.9041 73.7721Z" fill="white"/>
<path d="M25.3139 73.6926C24.2739 73.3326 23.7239 72.1926 24.0839 71.1416C24.4439 70.1016 25.5839 69.5516 26.6239 69.9126C27.6739 70.2726 28.2239 71.4126 27.8639 72.4526C27.5739 73.2826 26.8039 73.8026 25.9739 73.8026C25.7539 73.8026 25.5339 73.7616 25.3139 73.6926Z" fill="white"/>
<path d="M47.8639 72.4022C47.4939 71.3622 48.0439 70.2212 49.0839 69.8512C50.1239 69.4822 51.2649 70.0322 51.6339 71.0722C52.0039 72.1222 51.4539 73.2612 50.4139 73.6322C50.1939 73.7022 49.9639 73.7422 49.7439 73.7422C48.9229 73.7422 48.1539 73.2212 47.8639 72.4022Z" fill="white"/>
<path d="M17.6442 70.0226C16.7042 69.4316 16.4242 68.2026 17.0042 67.2616C17.5942 66.3316 18.8242 66.0416 19.7642 66.6316C20.7042 67.2116 20.9842 68.4516 20.4042 69.3816C20.0242 69.9916 19.3642 70.3216 18.7042 70.3216C18.3442 70.3226 17.9742 70.2216 17.6442 70.0226Z" fill="white"/>
<path d="M55.3142 69.2922C54.7242 68.3622 54.9942 67.1222 55.9342 66.5322V66.5422C56.8642 65.9422 58.0932 66.2222 58.6942 67.1522C59.2842 68.0912 59.0042 69.3222 58.0742 69.9122C58.0742 69.9122 58.0742 69.9122 58.0742 69.9222C57.7342 70.1322 57.3642 70.2222 57.0042 70.2222C56.3342 70.2212 55.6942 69.9022 55.3142 69.2922Z" fill="white"/>
<path d="M10.9838 64.7323C10.9738 64.7213 10.9538 64.7023 10.9438 64.6923C10.9338 64.6813 10.9138 64.6623 10.9038 64.6523C10.1238 63.8723 10.1238 62.6013 10.9038 61.8223C11.6838 61.0423 12.9538 61.0423 13.7338 61.8223C13.7438 61.8323 13.7438 61.8423 13.7538 61.8423C13.7738 61.8633 13.7838 61.8823 13.8038 61.8923C14.5838 62.6723 14.5938 63.9433 13.8138 64.7223C13.4238 65.1133 12.9038 65.3133 12.3938 65.3133C11.8838 65.3123 11.3738 65.1223 10.9838 64.7323Z" fill="white"/>
<path d="M61.8737 64.6016C61.0937 63.8226 61.0837 62.5516 61.8637 61.7726H61.8737C62.6447 60.9826 63.9137 60.9826 64.6937 61.7616C65.4837 62.5416 65.4837 63.8126 64.7037 64.5916C64.3137 64.9826 63.8047 65.1816 63.2837 65.1816C62.7737 65.1816 62.2637 64.9826 61.8737 64.6016Z" fill="white"/>
<path d="M5.59398 58.0026C5.59398 58.0026 5.59398 58.0026 5.59398 58.0126C5.00398 57.0736 5.28398 55.8426 6.22398 55.2526C7.15398 54.6626 8.39398 54.9426 8.98398 55.8726C9.56398 56.8126 9.28398 58.0426 8.35398 58.6326C8.02398 58.8426 7.65398 58.9436 7.28398 58.9436C6.62398 58.9426 5.97398 58.6126 5.59398 58.0026Z" fill="white"/>
<path d="M67.244 58.5726C66.305 57.9826 66.024 56.7426 66.604 55.8126C67.194 54.8726 68.423 54.5916 69.364 55.1816C70.304 55.7616 70.584 57.0016 69.994 57.9316C69.614 58.5416 68.964 58.8716 68.305 58.8716C67.934 58.8726 67.574 58.7726 67.244 58.5726Z" fill="white"/>
<path d="M1.90395 50.342C1.53395 49.302 2.08395 48.153 3.12395 47.792C4.17395 47.432 5.31395 47.972 5.67395 49.022C6.04395 50.062 5.49395 51.202 4.44395 51.572C4.23395 51.641 4.00395 51.681 3.79395 51.681C2.96395 51.681 2.18395 51.162 1.90395 50.342Z" fill="white"/>
<path d="M71.124 51.492C70.084 51.132 69.534 49.992 69.895 48.952C70.254 47.912 71.395 47.351 72.445 47.722C73.485 48.082 74.035 49.222 73.674 50.262C73.384 51.092 72.614 51.602 71.784 51.602C71.564 51.601 71.343 51.572 71.124 51.492Z" fill="white"/>
<path d="M0.0141308 42.0424C-0.105869 40.9524 0.674131 39.9624 1.77413 39.8324C2.87413 39.7124 3.86413 40.5024 3.98413 41.6024C4.11413 42.6934 3.32413 43.6824 2.22413 43.8134C2.14413 43.8234 2.07413 43.8234 2.00413 43.8234C0.994131 43.8224 0.124131 43.0724 0.0141308 42.0424Z" fill="white"/>
<path d="M73.3338 43.7321C72.2338 43.6121 71.4438 42.6221 71.5638 41.5321C71.6838 40.4311 72.6728 39.6411 73.7738 39.7611C74.8738 39.8811 75.6638 40.8621 75.5438 41.9611C75.5438 41.9611 75.5438 41.9611 75.5438 41.9711C75.4238 42.9921 74.5648 43.7421 73.5548 43.7421C73.4838 43.7421 73.4138 43.7421 73.3338 43.7321Z" fill="white"/>
<path d="M1.774 35.7518C0.674 35.6318 -0.116 34.6418 0.0140002 33.5418C0.134 32.4418 1.124 31.6518 2.224 31.7718C3.314 31.9018 4.104 32.8818 3.984 33.9818C3.874 35.0118 3.004 35.7618 1.994 35.7618C1.924 35.7618 1.854 35.7618 1.774 35.7518Z" fill="white"/>
<path d="M71.5537 33.9125C71.4337 32.8225 72.2127 31.8225 73.3137 31.7025C74.4137 31.5725 75.4037 32.3625 75.5337 33.4625C75.6537 34.5625 74.8637 35.5525 73.7637 35.6725C73.6937 35.6825 73.6137 35.6925 73.5427 35.6925C72.5337 35.6925 71.6727 34.9325 71.5537 33.9125Z" fill="white"/>
<path d="M3.12401 27.7925C2.08401 27.4325 1.52401 26.2925 1.89401 25.2425C1.89401 25.2425 1.89401 25.2425 1.89401 25.2525C2.25401 24.2025 3.39401 23.6525 4.43401 24.0225C5.48401 24.3825 6.03401 25.5225 5.66401 26.5625C5.38401 27.3925 4.60401 27.9025 3.78401 27.9025C3.56401 27.9025 3.34401 27.8725 3.12401 27.7925Z" fill="white"/>
<path d="M69.8541 26.4924C69.4841 25.4524 70.0341 24.3124 71.0831 23.9424C72.1231 23.5824 73.2641 24.1224 73.6231 25.1724C73.9931 26.2124 73.4431 27.3524 72.4031 27.7224C72.1831 27.7924 71.9631 27.8324 71.7431 27.8324C70.9141 27.8324 70.1441 27.3224 69.8541 26.4924Z" fill="white"/>
<path d="M6.20417 20.3424C5.27417 19.7524 4.99417 18.5124 5.58417 17.5824C6.16417 16.6424 7.40417 16.3624 8.33417 16.9524C9.27417 17.5424 9.55417 18.7724 8.96417 19.7124C8.58417 20.3124 7.93417 20.6424 7.27417 20.6424C6.90417 20.6424 6.53417 20.5424 6.20417 20.3424Z" fill="white"/>
<path d="M66.5441 19.6421C65.9541 18.7121 66.2341 17.4721 67.1641 16.8821C68.0941 16.2921 69.3341 16.5721 69.9241 17.5121C70.5151 18.4421 70.2351 19.6821 69.3051 20.2721C68.9641 20.4821 68.5941 20.5821 68.2351 20.5821C67.5741 20.5821 66.9231 20.2521 66.5441 19.6421Z" fill="white"/>
<path d="M10.8838 13.7627C10.1038 12.9827 10.1038 11.7127 10.8838 10.9327C11.6638 10.1527 12.9338 10.1527 13.7138 10.9327C14.4938 11.7127 14.4938 12.9727 13.7138 13.7627C13.3238 14.1527 12.8138 14.3427 12.2938 14.3427C11.7838 14.3427 11.2738 14.1527 10.8838 13.7627Z" fill="white"/>
<path d="M61.7837 13.7021C60.9937 12.9221 60.9937 11.6621 61.7737 10.8721C62.5537 10.0921 63.8237 10.0921 64.6037 10.8721C65.3827 11.6521 65.3827 12.9121 64.6037 13.7021C64.2127 14.0921 63.7037 14.2921 63.1937 14.2921C62.6837 14.2821 62.1727 14.0921 61.7837 13.7021Z" fill="white"/>
<path d="M16.904 8.37201C16.314 7.44201 16.584 6.20201 17.524 5.61201C18.454 5.03201 19.694 5.30201 20.284 6.24201C20.874 7.17201 20.594 8.41201 19.654 9.00201C19.324 9.21201 18.954 9.31201 18.594 9.31201C17.934 9.31201 17.284 8.98201 16.904 8.37201Z" fill="white"/>
<path d="M55.8241 8.96203C54.8941 8.37203 54.6041 7.14203 55.1941 6.20203C55.7841 5.27203 57.0141 4.98203 57.9541 5.57203C58.8841 6.16203 59.1741 7.39202 58.5841 8.33202C58.2041 8.93202 57.5551 9.27203 56.8841 9.27203C56.5241 9.27203 56.1541 9.17203 55.8241 8.96203Z" fill="white"/>
<path d="M23.964 4.46201C23.594 3.42201 24.144 2.28201 25.184 1.92201C26.234 1.55201 27.374 2.10201 27.734 3.14201C28.104 4.19201 27.554 5.33201 26.514 5.69201C26.294 5.77201 26.064 5.80201 25.844 5.80201C25.024 5.80201 24.254 5.29201 23.964 4.46201Z" fill="white"/>
<path d="M48.9629 5.67254C47.9229 5.30254 47.3729 4.16254 47.7339 3.12254C48.0929 2.08254 49.2339 1.53254 50.2839 1.89254C51.3239 2.25254 51.8739 3.39254 51.5139 4.44254C51.2239 5.26254 50.4539 5.78254 49.6239 5.78254C49.4039 5.78254 49.1839 5.74254 48.9629 5.67254Z" fill="white"/>
<path d="M31.7137 2.23181C31.5937 1.14181 32.3837 0.151812 33.4837 0.0218116C34.5737 -0.0981884 35.5637 0.691812 35.6937 1.79181C35.8137 2.88181 35.0237 3.87181 33.9337 4.00181C33.8537 4.01181 33.7737 4.01181 33.7037 4.01181C32.7037 4.01181 31.8337 3.25181 31.7137 2.23181Z" fill="white"/>
<path d="M41.5438 3.99205C40.4438 3.87205 39.6538 2.88205 39.7738 1.78205C39.8938 0.682046 40.8828 -0.107954 41.9838 0.012046C43.0838 0.132046 43.8738 1.12205 43.7538 2.22205C43.6338 3.24205 42.7748 4.00205 41.7648 4.00205C41.6938 4.00205 41.6138 4.00205 41.5438 3.99205Z" fill="white"/>
<path d="M37.7738 65.2382C30.4398 65.2382 23.5448 62.3822 18.3598 57.1962C7.6548 46.4912 7.6548 29.0722 18.3598 18.3682C29.0638 7.66422 46.4828 7.66322 57.1878 18.3682C62.3738 23.5532 65.2298 30.4482 65.2298 37.7822C65.2298 45.1162 62.3738 52.0112 57.1878 57.1962C52.0018 62.3812 45.1078 65.2382 37.7738 65.2382ZM37.7738 14.3372C31.7668 14.3372 25.7608 16.6242 21.1878 21.1962C12.0428 30.3422 12.0428 45.2222 21.1878 54.3682C25.6178 58.7992 31.5078 61.2382 37.7738 61.2382C44.0388 61.2382 49.9288 58.7992 54.3598 54.3682C58.7908 49.9372 61.2298 44.0472 61.2298 37.7822C61.2298 31.5162 58.7908 25.6262 54.3598 21.1962C49.7868 16.6242 43.7808 14.3372 37.7738 14.3372Z" fill="white"/>
<path d="M37.7738 50.7821C34.3008 50.7821 31.0368 49.4301 28.5818 46.9741C23.5138 41.9061 23.5138 33.6581 28.5818 28.5891C33.6508 23.5211 41.8988 23.5211 46.9668 28.5891C49.4218 31.0451 50.7738 34.3091 50.7738 37.7821C50.7738 41.2551 49.4218 44.5191 46.9658 46.9741C44.5108 49.4301 41.2468 50.7821 37.7738 50.7821ZM32.8238 42.7321C34.1458 44.0541 35.9038 44.7821 37.7738 44.7821C39.6438 44.7821 41.4018 44.0541 42.7238 42.7321C44.0458 41.4101 44.7738 39.6521 44.7738 37.7821C44.7738 35.9121 44.0458 34.1541 42.7238 32.8321C39.9948 30.1031 35.5538 30.1031 32.8238 32.8321C30.0948 35.5611 30.0948 40.0031 32.8238 42.7321Z" fill="white"/>
</svg>
